Coordinates
version=1
nRows=24
nColumns=24
inDegrees=yes

Units are S.I. units (second, meters, Newtons, ...)
Angles are in degrees.

endheader
time	pelvis_tilt	pelvis_list	pelvis_rotation	pelvis_tx	pelvis_ty	pelvis_tz	hip_flexion_r	hip_adduction_r	hip_rotation_r	knee_angle_r	ankle_angle_r	subtalar_angle_r	mtp_angle_r	hip_flexion_l	hip_adduction_l	hip_rotation_l	knee_angle_l	ankle_angle_l	subtalar_angle_l	mtp_angle_l	lumbar_extension	lumbar_bending	lumbar_rotation
      4.24000000	     13.28057912	     11.07149006	     18.81853620	     -0.11251583	      0.74411764	     -0.30512277	     10.37700433	    -12.69321473	    -11.25218671	    -15.23756177	     23.07606190	     13.67226522	      0.00000000	    -24.49392449	      5.25640113	     10.52114374	    -31.24292429	     28.06685914	     15.37539987	      0.00000000	    -33.31619447	      0.06389938	    -16.91888049
      4.24500000	     13.35389598	     10.56035231	     18.73212476	     -0.10392355	      0.74395407	     -0.30443099	     10.32663459	    -11.79324042	    -10.62440725	    -15.93249773	     22.68238185	     12.64739431	      0.00000000	    -23.61674632	      4.79888779	     10.31618556	    -33.87363099	     26.65090805	     14.79298309	      0.00000000	    -33.14719047	      0.44140826	    -16.31489023
      4.25000000	     13.44382397	      9.96330695	     18.52565158	     -0.09526653	      0.74381273	     -0.30360923	     10.29756805	    -10.76196417	     -9.85608069	    -16.65925149	     22.22474775	     11.50790064	      0.00000000	    -22.66639512	      4.28076895	      9.88941133	    -36.53946017	     25.00522062	     14.29004487	      0.00000000	    -32.97117369	      0.83861465	    -15.52069056
      4.25500000	     13.54061790	      9.32069218	     18.30125434	     -0.08662294	      0.74372770	     -0.30277785	     10.23942469	     -9.67123187	     -9.07859803	    -17.37104369	     21.73467743	     10.36765990	      0.00000000	    -21.64216103	      3.72553284	      9.42743640	    -39.24502177	     23.10970204	     13.68267620	      0.00000000	    -32.79837378	      1.28054004	    -14.70141991
      4.26000000	     13.63894439	      8.62086614	     18.05570993	     -0.07799636	      0.74368187	     -0.30192690	     10.17214111	     -8.51381251	     -8.29412934	    -18.07990182	     21.22894976	      9.24898938	      0.00000000	    -20.54603420	      3.11998408	      8.93239143	    -41.95668244	     21.00723898	     12.95307301	      0.00000000	    -32.62093559	      1.77570031	    -13.85365480
      4.26500000	     13.73585500	      7.87243985	     17.79534508	     -0.06939998	      0.74366975	     -0.30107883	     10.08692845	     -7.30500361	     -7.52613511	    -18.75847785	     20.72684504	      8.17833448	      0.00000000	    -19.38316923	      2.46904133	      8.41315408	    -44.65422436	     18.73082934	     12.09081325	      0.00000000	    -32.44212278	      2.31862171	    -12.98677625
      4.27000000	     13.82702628	      7.08186288	     17.53878241	     -0.06082128	      0.74371614	     -0.30021961	      9.96121710	     -6.05254428	     -6.77013792	    -19.35798658	     20.24334949	      7.23305716	      0.00000000	    -18.16542807	      1.77034502	      7.92145330	    -47.29449215	     16.30718788	     11.13578964	      0.00000000	    -32.25829912	      2.90162749	    -12.12491983
      4.27500000	     13.91428495	      6.26193671	     17.28534873	     -0.05229427	      0.74380252	     -0.29937543	      9.80282377	     -4.77991083	     -6.06600947	    -19.89534584	     19.79437800	      6.40043616	      0.00000000	    -16.90165106	      1.03912022	      7.45638778	    -49.86454768	     13.83458243	     10.07378935	      0.00000000	    -32.08052774	      3.52186807	    -11.27486240
      4.28000000	     13.99301496	      5.42014956	     17.04165634	     -0.04381707	      0.74392852	     -0.29855605	      9.60483816	     -3.49909799	     -5.41858638	    -20.34794387	     19.39537119	      5.69085331	      0.00000000	    -15.59677111	      0.28447167	      7.04075545	    -52.34323091	     11.37339969	      8.94295749	      0.00000000	    -31.90540046	      4.17122335	    -10.44532644
      4.28500000	     14.06794201	      4.57064167	     16.82078144	     -0.03539834	      0.74410351	     -0.29777794	      9.35420737	     -2.23045599	     -4.85335414	    -20.70774495	     19.07527830	      5.14358249	      0.00000000	    -14.26815655	     -0.47662394	      6.70713121	    -54.70968666	      9.00463791	      7.74699795	      0.00000000	    -31.74156256	      4.84309863	     -9.65294843
      4.29000000	     14.13214905	      3.72268239	     16.61961286	     -0.02704153	      0.74431919	     -0.29703952	      9.05616865	     -0.98706901	     -4.36533047	    -20.96685081	     18.82645602	      4.73554422	      0.00000000	    -12.91410262	     -1.22952146	      6.45767427	    -56.95694669	      6.79480719	      6.54995620	      0.00000000	    -31.58357837	      5.52544484	     -8.90016444
      4.29500000	     14.18857866	      2.88706723	     16.44353828	     -0.01875706	      0.74458167	     -0.29636215	      8.70380131	      0.21709870	     -3.96062843	    -21.12287064	     18.65236707	      4.47398217	      0.00000000	    -11.54478372	     -1.95689847	      6.30391464	    -59.07504930	      4.81312377	      5.37554651	      0.00000000	    -31.43829475	      6.21276108	     -8.19617584
      4.30000000	     14.23845573	      2.07747920	     16.29350481	     -0.01054182	      0.74489138	     -0.29574933	      8.29605955	      1.36526828	     -3.65969087	    -21.18065851	     18.57031508	      4.33684046	      0.00000000	    -10.16737414	     -2.63788672	      6.25283956	    -61.06105675	      3.10414607	      4.25039482	      0.00000000	    -31.30789879	      6.88912640	     -7.53092205
      4.30500000	     14.30075492	      1.29955547	     16.16208086	     -0.00238808	      0.74527600	     -0.29521594	      7.80293783	      2.45398822	     -3.46081348	    -21.12099255	     18.56889873	      4.38177450	      0.00000000	     -8.81269302	     -3.26449852	      6.29883701	    -62.90280622	      1.71684068	      3.21122115	      0.00000000	    -31.21096089	      7.55650095	     -6.89283772
      4.31000000	     14.39850548	      0.56379991	     16.02452527	      0.00570185	      0.74574558	     -0.29471642	      7.21316559	      3.48672305	     -3.30922527	    -20.97324973	     18.63404633	      4.61607022	      0.00000000	     -7.50954427	     -3.84390242	      6.37469262	    -64.59928711	      0.67085451	      2.28936751	      0.00000000	    -31.17881500	      8.19982595	     -6.33398227
      4.31500000	     14.43867206	     -0.12456839	     15.92555887	      0.01370154	      0.74621412	     -0.29427507	      6.62791194	      4.43843883	     -3.22281388	    -20.74249312	     18.74997634	      4.79634776	      0.00000000	     -6.14094662	     -4.32407968	      6.56654364	    -66.17648031	     -0.06770560	      1.42800532	      0.00000000	    -31.10928829	      8.79685241	     -5.82645977
      4.32000000	     14.44816980	     -0.76447100	     15.84667184	      0.02163540	      0.74670344	     -0.29389551	      6.02006513	      5.31317809	     -3.19085380	    -20.43499590	     18.91226814	      5.01271200	      0.00000000	     -4.74548516	     -4.71739374	      6.82938126	    -67.62395445	     -0.47665759	      0.69823502	      0.00000000	    -31.02445390	      9.35291027	     -5.36896968
      4.32500000	     14.39535155	     -1.35839355	     15.80708404	      0.02952953	      0.74718401	     -0.29356253	      5.41456744	      6.10992383	     -3.23008040	    -20.03005263	     19.14099290	      5.26730935	      0.00000000	     -3.28368787	     -5.02264070	      7.17999201	    -68.94673936	     -0.57724374	      0.12676450	      0.00000000	    -30.88033481	      9.86315251	     -5.00263488
      4.33000000	     14.43984041	     -1.89123849	     15.70565997	      0.03737547	      0.74779217	     -0.29326066	      4.66859206	      6.85291312	     -3.27492330	    -19.59607279	     19.39822744	      5.65564872	      0.00000000	     -1.97308584	     -5.26679967	      7.46663623	    -70.10165574	     -0.36508178	     -0.40008514	      0.00000000	    -30.87484695	     10.32603833	     -4.58490337
      4.33500000	     14.42829573	     -2.37784814	     15.65192260	      0.04516866	      0.74838624	     -0.29300742	      3.93198468	      7.52074324	     -3.39882112	    -19.08764327	     19.67879887	      6.09450103	      0.00000000	     -0.60566595	     -5.42144802	      7.84699141	    -71.12877663	      0.11894787	     -0.78494560	      0.00000000	    -30.81900752	     10.74804148	     -4.26980292
      4.34000000	     14.44180673	     -2.80811191	     15.55753089	      0.05294024	      0.74903735	     -0.29275446	      3.12757339	      8.13157880	     -3.50711186	    -18.53810894	     19.97009823	      6.57199805	      0.00000000	      0.69374008	     -5.50787889	      8.18636937	    -71.99532771	      0.82683967	     -1.12818486	      0.00000000	    -30.81444178	     11.10464535	     -3.93093094
      4.34500000	     14.48176910	     -3.18910968	     15.41730093	      0.06067026	      0.74973020	     -0.29251006	      2.26956617	      8.69594624	     -3.56499219	    -17.97694840	     20.27018162	      7.01900682	      0.00000000	      1.92589559	     -5.53154599	      8.47740878	    -72.70849649	      1.71039924	     -1.48540474	      0.00000000	    -30.86754866	     11.40581550	     -3.54756957
      4.35000000	     14.47264392	     -3.52164473	     15.31373821	      0.06845141	      0.75040646	     -0.29229406	      1.40067222	      9.18851746	     -3.69197556	    -17.32604816	     20.55496745	      7.57690985	      0.00000000	      3.18436828	     -5.49976631	      8.79902820	    -73.27255619	      2.77702897	     -1.65602181	      0.00000000	    -30.84947754	     11.66024247	     -3.28108164
      4.35500000	     14.48762128	     -3.80296453	     15.14243056	      0.07616609	      0.75109451	     -0.29206057	      0.50475708	      9.63466835	     -3.72050022	    -16.71168916	     20.85716486	      8.05182769	      0.00000000	      4.36964328	     -5.40302137	      9.04950243	    -73.68240762	      3.93304766	     -1.93699424	      0.00000000	    -30.90090954	     11.84657357	     -2.93876170
